<svg width="88" height="88" viewBox="0 0 88 88" fill="none" xmlns="http://www.w3.org/2000/svg">
<g clip-path="url(#clip0)">
<path d="M61.8306 27.094C71.1639 43.2598 58.3793 69.1162 58.3793 69.1162C58.3793 69.1162 29.5947 67.2598 20.2614 51.094C17.0788 45.5816 16.2163 39.0306 17.8637 32.8823C19.5112 26.734 23.5335 21.492 29.046 18.3094C34.5584 15.1268 41.1093 14.2643 47.2576 15.9118C53.4059 17.5592 58.648 21.5816 61.8306 27.094Z" stroke="#2D7C66" stroke-opacity="0.65" stroke-width="5" stroke-linecap="round" stroke-linejoin="round"/>
<path d="M45.0459 46.0222C48.8722 43.8131 50.1832 38.9203 47.9741 35.094C45.7649 31.2676 40.8722 29.9566 37.0459 32.1658C33.2195 34.3749 31.9085 39.2676 34.1177 43.094C36.3268 46.9203 41.2195 48.2313 45.0459 46.0222Z" stroke="#2D7C66" stroke-opacity="0.65" stroke-width="5" stroke-linecap="round" stroke-linejoin="round"/>
</g>
<defs>
<clipPath id="clip0">
<rect width="64" height="64" fill="white" transform="translate(-0.000244141 32) rotate(-30)"/>
</clipPath>
</defs>
</svg>
